<svg width="100" height="25" viewBox="0 0 100 25" fill="none" xmlns="http://www.w3.org/2000/svg">
<path d="M27.2634 21.591V6.29665H21.5693V3.4082H36.3513V6.29665H30.6799V21.58H27.2521L27.2634 21.591Z" fill="white"/>
<path d="M38.9364 21.591V3.4082H42.3643V21.591H38.9364Z" fill="white"/>
<path d="M45.4733 21.591V3.4082H49.4819L57.5448 17.0868V3.4082H60.9726V21.591H56.8615L48.9011 8.29975V21.591H45.4733Z" fill="white"/>
<path d="M71.8711 22.0008C70.0946 22.0008 68.5685 21.5913 67.2817 20.7834C65.9948 19.9756 65.0154 18.8578 64.3435 17.4413C63.6716 16.0247 63.33 14.3868 63.33 12.5276C63.33 10.6683 63.6716 9.07472 64.3663 7.63603C65.061 6.19734 66.0517 5.06852 67.3614 4.23851C68.6596 3.4085 70.2198 2.99902 72.0533 2.99902C73.6363 2.99902 74.9687 3.26463 76.0506 3.79584C77.1325 4.32704 77.998 5.05746 78.6471 5.99814C79.2962 6.93882 79.7518 8.02337 80.0137 9.25179L76.4264 9.42886C76.2328 8.35538 75.8001 7.49216 75.1168 6.85028C74.4449 6.20841 73.4313 5.88747 72.0761 5.88747C70.8803 5.88747 69.901 6.18627 69.1379 6.78388C68.3749 7.38149 67.8055 8.17831 67.4297 9.17432C67.0539 10.1703 66.8603 11.2881 66.8603 12.5165C66.8603 13.7449 67.0425 14.9069 67.4183 15.8919C67.7828 16.8768 68.3636 17.6626 69.1493 18.2381C69.9351 18.8135 70.9145 19.1013 72.1103 19.1013C73.0441 19.1013 73.8413 18.9131 74.5132 18.5369C75.1851 18.1606 75.709 17.6405 76.0962 16.9875C76.4834 16.3346 76.6883 15.6042 76.7339 14.7963H72.1217V12.2066H80.082V21.5803H77.8727L77.6563 17.5851L78.0777 17.8397C77.8841 18.6586 77.4969 19.378 76.9047 20.0088C76.3125 20.6285 75.5837 21.1154 74.7182 21.4696C73.8527 21.8237 72.9075 21.9897 71.8825 21.9897L71.8711 22.0008Z" fill="white"/>
<path d="M82.4395 21.5917V18.7254L91.7436 6.30837H82.838V3.41992H95.9117V6.28623L86.5278 18.7032H96.2306V21.5917H82.4508H82.4395Z" fill="white"/>
<path d="M17.2304 7.56934C16.9685 6.90533 16.308 6.47372 15.5791 6.47372H14.9414L15.7499 3.4082C15.7499 3.4082 14.6908 4.05008 12.994 4.05008C11.2971 4.05008 10.238 3.4082 10.238 3.4082L11.0466 6.47372H10.5114C9.78251 6.47372 9.13339 6.90533 8.86007 7.56934L3.76953 20.2741C3.76953 20.2741 7.28849 22.6866 13.0395 20.2741C18.7906 17.8615 22.3096 20.2741 22.3096 20.2741L17.219 7.56934H17.2304ZM12.9712 16.6441C12.9712 14.3533 11.0694 12.5051 8.71202 12.5051C11.0694 12.5051 12.9712 10.657 12.9712 8.36615C12.9712 10.657 14.8731 12.5051 17.2304 12.5051C14.8731 12.5051 12.9712 14.3533 12.9712 16.6441Z" fill="white"/>
</svg>
